<svg viewBox="0 0 253.89 253.76" xmlns="http://www.w3.org/2000/svg"><path d="m103.48 1.55c-51.1 9.2-93 51.5-101.9 102.8-2.11 11.7-2.11 33.3 0 45 9 51.8 51.1 93.9 102.9 102.9 11.5 2 32.3 2 44.5.1 51.7-8.4 94.4-51 103.4-103 2-11.5 2-32.3.1-44.5-8.4-51.7-51-94.4-103-103.4-11.2-2-35-1.9-46 .1zm16.52 54.8v41.5l-4.9 2.4c-6.9 3.5-10.3 6.7-13.6 12.8-2.7 4.7-3 6.2-3 13.8 0 6.8.5 9.3 2.2 12.6 3.4 6.3 6.6 9.7 12.5 12.9 4.7 2.7 6.3 3 13.8 3s9.1-.3 13.8-3c5.9-3.2 9.1-6.6 12.5-12.9 1.7-3.3 2.2-5.8 2.2-12.6 0-7.6-.3-9.1-3-13.8-3.3-6.1-6.7-9.3-13.6-12.8l-4.9-2.4v-83.3l6.3.6c38.5 3.7 75.9 32.2 90.7 69 17.2 42.9 7.7 89.8-24.6 122.1-23.7 23.7-57.7 36.1-89.5 32.6-48.8-5.4-87-38-98.9-84.5-12.4-48.3 8.8-98.6 52.5-124.7 13-7.8 33.7-14.4 45.8-14.7l3.7-.1zm16.8 60.9c3.4 3.4 3.7 4.1 3.7 9.6s-.3 6.2-3.8 9.7-4.1 3.8-9.7 3.8-6.2-.3-9.7-3.8-3.8-4.1-3.8-9.7c0-5.2.4-6.3 3-9 4-4.2 6.1-5.1 11.8-4.6 3.98.3 5.48 1 8.48 4z"/><path d="m67.78 73.05c-12.7 13.8-20.8 34.7-20.8 53.8s8.1 40 20.8 53.8c4.1 4.4 7 5.2 9.6 2.6s1.9-5-2.7-10.2a72.17 72.17 0 0 1 -14.3-24.7c-2.6-7.2-2.8-9.3-2.8-21.5s.2-14.3 2.8-21.5a72.17 72.17 0 0 1 14.3-24.7c4.6-5.2 5.3-7.7 2.7-10.2s-5.5-1.8-9.6 2.6z"/><path d="m176.58 70.45c-2.6 2.5-1.9 5 2.7 10.2a72.17 72.17 0 0 1 14.3 24.7c2.6 7.2 2.8 9.3 2.8 21.5s-.2 14.3-2.8 21.5a72.17 72.17 0 0 1 -14.3 24.7c-4.6 5.2-5.3 7.7-2.7 10.2s5.5 1.8 9.6-2.6c12.7-13.8 20.8-34.7 20.8-53.8s-8.1-40-20.8-53.8c-4.1-4.4-7-5.2-9.6-2.6z"/><path d="m85 91.55c-13.6 15.4-16.7 39.7-7.6 58.7 7.1 14.8 16.4 21.2 19 13 .5-1.6-.4-3.4-3.4-7-7.2-8.7-11-18.7-11-29.4s3.8-20.7 11-29.4c3-3.6 3.9-5.4 3.4-7-1.72-5.3-6.22-4.8-11.4 1.1z"/><path d="m159.38 87.65c-2.9 1.9-2.4 4.9 1.6 9.8 14.6 17.6 14.6 41.2 0 58.8-3 3.6-3.9 5.4-3.4 7 1.5 4.9 6.1 4.8 10.7-.3 14.3-15.8 17.6-40 8.2-59.6-5.8-12.1-12.8-18.6-17.1-15.7z"/></svg>